<svg id="Layer_1" data-name="Layer 1" xmlns="http://www.w3.org/2000/svg" viewBox="0 0 1488 1488"><defs><style>.cls-1{fill:#ff493e;}.cls-2{fill:#fefefe;fill-rule:evenodd;}</style></defs><circle class="cls-1" cx="744" cy="744" r="744"/><path class="cls-2" d="M1230.59,1488.06a487.17,487.17,0,0,1-146.43,33.48V1663a631.8,631.8,0,0,0,146.43-25.31c248.43-73.87,431.58-294.86,443.77-559.4.48-9.43.64-18.86.64-28.29a607.49,607.49,0,0,0-11.07-115.21c-43.62-225.24-212.66-406.94-433.34-472.48A640.38,640.38,0,0,0,1084.16,437v928.46h146.43V1078.29h299.59c-11.23,185.79-131.84,342.65-299.59,409.77Zm0-876.12c140.81,56.27,248.43,176,286,322.85h-286Z" transform="translate(-306 -306)"/><path class="cls-2" d="M869.41,1488.06a487.17,487.17,0,0,0,146.43,33.48V1663a633.28,633.28,0,0,1-146.43-25.31c-248.43-73.87-431.58-294.86-443.77-559.4-.32-9.43-.64-18.86-.64-28.29a607.49,607.49,0,0,1,11.07-115.21c43.62-225.24,212.82-406.94,433.34-472.48A641.89,641.89,0,0,1,1015.84,437v928.46H869.41V1078.29H570c11.07,185.79,131.68,342.65,299.43,409.77Zm0-876.12C728.6,668.21,621,788,583.46,934.79H869.41Z" transform="translate(-306 -306)"/></svg>